#!OML:ASF I:\Actors\actors\Patient Classification 2\Patient 1\Session 1\actor1.ASF
:FULLY-SPECIFIED
:DEGREES
677
root -0.797015 18.6276 6.68862 2.01698 -3.19376 -6.13382
lowerback 1.92829 0.461921 2.74154
upperback -2.32918 0.774179 1.90781
thorax -3.4693 0.34144 0.389573
lowerneck -10.5112 -1.52044 -1.56545
upperneck 28.5796 -2.33158 1.63947
head 10.9772 -1.04636 0.573274
rclavicle 6.98852e-015 -1.05356e-014
rhumerus -46.556 -0.255446 -88.8612
rradius 44.3348
rwrist 16.7886
rhand -4.71617 -34.8724
rfingers 7.12502
rthumb 21.0661 -423.748
lclavicle 6.98852e-015 -1.05356e-014
lhumerus -40.102 -5.22767 98.1654
lradius 42.1792
lwrist -8.60694
lhand 2.01307 -26.2868
lfingers 7.12502
lthumb 27.5171 1.72236
rfemur 9.45861 2.1201 20.1435
rtibia -6.36111e-015
rfoot -17.9337 -9.87828
rtoes -10.4619
lfemur -3.20067 -6.54821 -8.50988
ltibia 24.5692
lfoot -25.3667 12.4325
ltoes -56.4791
678
root -0.794432 18.6273 6.69995 2.05189 -3.22819 -6.07143
lowerback 1.83812 0.461525 2.69091
upperback -2.3652 0.769047 1.9043
thorax -3.45614 0.340074 0.415193
lowerneck -10.5448 -1.47674 -1.52441
upperneck 28.5263 -2.24576 1.53379
head 10.96 -1.01534 0.538277
rclavicle 2.72708e-015 -4.17448e-015
rhumerus -46.7741 -0.0385356 -89.0792
rradius 44.4202
rwrist 17.5214
rhand -8.25923 -33.2881
rfingers 7.12502
rthumb 17.6594 -422.506
lclavicle 2.72708e-015 -4.17448e-015
lhumerus -40.2664 -5.68463 98.571
lradius 41.9742
lwrist -9.20343
lhand 2.50742 -26.2975
lfingers 7.12502
lthumb 27.9898 1.63555
rfemur 9.4448 2.15337 20.0662
rtibia 3.18055e-015
rfoot -17.9192 -9.90374
rtoes -10.4718
lfemur -3.1728 -6.5824 -8.60912
ltibia 24.5481
lfoot -25.3962 12.5342
ltoes -56.5122
679
root -0.793024 18.6272 6.71079 2.04737 -3.26626 -5.99497
lowerback 1.74435 0.454906 2.60752
upperback -2.36457 0.753379 1.90483
thorax -3.40353 0.334901 0.463849
lowerneck -10.511 -1.43124 -1.525
upperneck 28.4044 -2.16991 1.50475
head 10.9053 -0.984813 0.5374
rclavicle -2.49723e-015 -1.53064e-014
rhumerus -46.9195 0.216977 -89.2756
rradius 44.4669
rwrist 18.2451
rhand -7.44364 -33.3165
rfingers 7.12502
rthumb 18.4441 -422.462
lclavicle -2.49723e-015 -1.53064e-014
lhumerus -40.4541 -6.13355 98.937
lradius 41.8086
lwrist -9.55481
lhand 2.8026 -26.444
lfingers 7.12502
lthumb 28.2719 1.44262
rfemur 9.47504 2.18895 19.9834
rtibia 4.77083e-015
rfoot -17.8979 -9.96656
rtoes -10.8429
lfemur -3.10168 -6.57422 -8.71273
ltibia 24.5151
lfoot -25.4547 12.5406
ltoes -56.4292
680
root -0.792684 18.6265 6.72153 2.00793 -3.32607 -5.93353
lowerback 1.68232 0.457678 2.55036
upperback -2.35658 0.751945 1.89175
thorax -3.3606 0.335874 0.482902
lowerneck -10.4617 -1.40323 -1.54925
upperneck 28.2864 -2.13913 1.56168
head 10.8512 -0.967268 0.566135
rclavicle 4.94477e-015 1.43125e-014
rhumerus -47.0559 0.497433 -89.5244
rradius 44.3849
rwrist 18.4538
rhand -4.48017 -34.1948
rfingers 7.12502
rthumb 21.2928 -423.045
lclavicle 4.94477e-015 1.43125e-014
lhumerus -40.6799 -6.52925 99.2097
lradius 41.6829
lwrist -9.8298
lhand 3.00947 -26.5594
lfingers 7.12502
lthumb 28.4696 1.29431
rfemur 9.55307 2.24595 19.9249
rtibia 3.65764e-014
rfoot -17.8947 -9.99893
rtoes -11.0125
lfemur -2.99338 -6.53266 -8.7953
ltibia 24.4819
lfoot -25.5416 12.5018
ltoes -56.2691
681
root -0.792389 18.6259 6.73238 1.99184 -3.3766 -5.91705
lowerback 1.6118 0.458437 2.5586
upperback -2.35557 0.749688 1.87163
thorax -3.31933 0.334627 0.458247
lowerneck -10.5045 -1.38401 -1.56238
upperneck 28.2646 -2.13321 1.64965
head 10.8526 -0.955439 0.600549
rclavicle 3.32964e-015 -3.18055e-015
rhumerus -47.1801 0.641941 -89.7279
rradius 44.3425
rwrist 18.9994
rhand -1.94313 -34.8515
rfingers 7.12502
rthumb 23.7279 -423.407
lclavicle 3.32964e-015 -3.18055e-015
lhumerus -40.8697 -6.78705 99.3418
lradius 41.529
lwrist -10.1089
lhand 3.41129 -26.5919
lfingers 7.12502
lthumb 28.8535 1.19694
rfemur 9.60833 2.29501 19.9134
rtibia -1.43125e-014
rfoot -17.8974 -10.0062
rtoes -11.029
lfemur -2.91766 -6.5477 -8.83512
ltibia 24.464
lfoot -25.6066 12.5555
ltoes -56.2058
682
root -0.791434 18.6262 6.74126 2.02605 -3.41243 -5.96252
lowerback 1.52304 0.450786 2.6194
upperback -2.3665 0.73821 1.87711
thorax -3.28003 0.327745 0.431082
lowerneck -10.5906 -1.35937 -1.53709
upperneck 28.2715 -2.10546 1.65836
head 10.8716 -0.938594 0.602198
rclavicle -2.24254e-015 -1.5704e-014
rhumerus -47.2818 0.711025 -89.8872
rradius 44.361
rwrist 19.5959
rhand -0.734815 -35.2263
rfingers 7.12502
rthumb 24.8864 -423.626
lclavicle -2.24254e-015 -1.5704e-014
lhumerus -40.9869 -6.82375 99.3522
lradius 41.2773
lwrist -10.4334
lhand 4.03943 -26.5654
lfingers 7.12502
lthumb 29.4533 1.11951
rfemur 9.59928 2.33162 19.9623
rtibia -7.95139e-015
rfoot -17.8984 -10.0069
rtoes -11.0423
lfemur -2.90185 -6.59846 -8.8043
ltibia 24.4566
lfoot -25.6571 12.6202
ltoes -56.1439
683
root -0.789639 18.6264 6.74781 2.0782 -3.44233 -5.96956
lowerback 1.45924 0.436939 2.61711
upperback -2.39909 0.718548 1.8958
thorax -3.2782 0.318099 0.452893
lowerneck -10.6174 -1.31384 -1.43714
upperneck 28.2095 -2.01703 1.50422
head 10.8489 -0.905978 0.539956
rclavicle -1.66047e-014 9.93923e-016
rhumerus -47.3878 0.894745 -90.107
rradius 44.3132
rwrist 19.4109
rhand -1.56769 -34.9725
rfingers 7.12502
rthumb 24.088 -423.481
lclavicle -1.66047e-014 9.93923e-016
lhumerus -41.1109 -6.62614 99.2551
lradius 40.9965
lwrist -10.9462
lhand 4.51301 -26.5596
lfingers 7.12502
lthumb 29.9054 1.04475
rfemur 9.55869 2.36201 19.9623
rtibia 4.29375e-014
rfoot -17.8971 -10.0007
rtoes -10.9025
lfemur -2.91799 -6.62711 -8.81235
ltibia 24.4493
lfoot -25.7038 12.6754
ltoes -56.0881
